<?xml version="1.0" encoding="UTF-8"?>
<svg id="_Слой_1" data-name="Слой 1" xmlns="http://www.w3.org/2000/svg" viewBox="0 0 64 64">
  <defs>
    <style>
      .cls-1 {
        fill: #fff;
        stroke-width: 0px;
      }
    </style>
  </defs>
  <path class="cls-1" d="m49,52.99H15V10.99h34v42Zm-32-2h30V12.99h-30v38Z"/>
  <path class="cls-1" d="m25.47,34.26c-2.76,0-5-2.24-5-5s2.24-5,5-5,5,2.24,5,5-2.24,5-5,5Zm0-8c-1.65,0-3,1.35-3,3s1.35,3,3,3,3-1.35,3-3-1.35-3-3-3Z"/>
  <g>
    <rect class="cls-1" x="15" y="51.99" width="2" height="2.88"/>
    <path class="cls-1" d="m16,63.87c-2.76,0-5-2.24-5-5s2.24-5,5-5,5,2.24,5,5-2.24,5-5,5Zm0-8c-1.65,0-3,1.35-3,3s1.35,3,3,3,3-1.35,3-3-1.35-3-3-3Z"/>
  </g>
  <path class="cls-1" d="m39.28,34.26c-2.76,0-5-2.24-5-5s2.24-5,5-5,5,2.24,5,5-2.24,5-5,5Zm0-8c-1.65,0-3,1.35-3,3s1.35,3,3,3,3-1.35,3-3-1.35-3-3-3Z"/>
  <path class="cls-1" d="m31.13,41.23c-.59,0-1.19-.11-1.76-.32-1.25-.47-2.24-1.4-2.79-2.62l1.82-.82c.33.73.93,1.29,1.67,1.57.75.28,1.56.26,2.29-.08l.82,1.82c-.66.3-1.36.45-2.06.45Z"/>
  <path class="cls-1" d="m41.4,22.87c-1.17-1.17-3.07-1.17-4.24,0l-1.41-1.41c1.95-1.95,5.12-1.95,7.07,0l-1.41,1.41Z"/>
  <path class="cls-1" d="m27.59,22.87c-1.17-1.17-3.07-1.17-4.24,0l-1.41-1.41c1.95-1.95,5.12-1.95,7.07,0l-1.41,1.41Z"/>
  <path class="cls-1" d="m25.47,30.87c-.89,0-1.61-.72-1.61-1.61s.72-1.61,1.61-1.61,1.61.72,1.61,1.61-.72,1.61-1.61,1.61Zm0-1.61h0s0,0,0,0Z"/>
  <g>
    <g>
      <path class="cls-1" d="m41.23,10.13c-2.76,0-5-2.24-5-5S38.47.13,41.23.13s5,2.24,5,5-2.24,5-5,5Zm0-8c-1.65,0-3,1.35-3,3s1.35,3,3,3,3-1.35,3-3-1.35-3-3-3Z"/>
      <rect class="cls-1" x="33.5" y="8.99" width="5.8" height="2" transform="translate(3.14 27.85) rotate(-43.58)"/>
    </g>
    <g>
      <path class="cls-1" d="m22.77,10.13c-2.76,0-5-2.24-5-5S20.01.13,22.77.13s5,2.24,5,5-2.24,5-5,5Zm0-8c-1.65,0-3,1.35-3,3s1.35,3,3,3,3-1.35,3-3-1.35-3-3-3Z"/>
      <rect class="cls-1" x="26.59" y="7.09" width="2" height="5.8" transform="translate(1.33 23.1) rotate(-46.42)"/>
    </g>
  </g>
  <g>
    <rect class="cls-1" x="47" y="51.99" width="2" height="2.88"/>
    <path class="cls-1" d="m48,63.87c-2.76,0-5-2.24-5-5s2.24-5,5-5,5,2.24,5,5-2.24,5-5,5Zm0-8c-1.65,0-3,1.35-3,3s1.35,3,3,3,3-1.35,3-3-1.35-3-3-3Z"/>
  </g>
  <g>
    <rect class="cls-1" x="48" y="18.77" width="8" height="2"/>
    <rect class="cls-1" x="48" y="26.77" width="6.96" height="2"/>
    <rect class="cls-1" x="48" y="34.77" width="8" height="2"/>
    <rect class="cls-1" x="48" y="43.22" width="8" height="2"/>
    <path class="cls-1" d="m58.96,32.77c-2.76,0-5-2.24-5-5s2.24-5,5-5,5,2.24,5,5-2.24,5-5,5Zm0-8c-1.65,0-3,1.35-3,3s1.35,3,3,3,3-1.35,3-3-1.35-3-3-3Z"/>
  </g>
  <g>
    <rect class="cls-1" x="8" y="18.77" width="8" height="2"/>
    <rect class="cls-1" x="9.04" y="26.77" width="6.96" height="2"/>
    <rect class="cls-1" x="8" y="34.77" width="8" height="2"/>
    <rect class="cls-1" x="8" y="43.22" width="8" height="2"/>
    <path class="cls-1" d="m5.04,32.77C2.29,32.77.04,30.52.04,27.77s2.24-5,5-5,5,2.24,5,5-2.24,5-5,5Zm0-8c-1.65,0-3,1.35-3,3s1.35,3,3,3,3-1.35,3-3-1.35-3-3-3Z"/>
  </g>
  <path class="cls-1" d="m39.28,30.87c-.89,0-1.61-.72-1.61-1.61s.72-1.61,1.61-1.61,1.61.72,1.61,1.61-.72,1.61-1.61,1.61Zm0-1.61h0s0,0,0,0Z"/>
</svg>