<svg width="30" height="36" viewBox="0 0 30 36" fill="none" xmlns="http://www.w3.org/2000/svg">
<path d="M29.0364 12.2748C28.8614 12.3802 25.0124 14.5698 25.0561 19.1252C25.1045 24.5738 29.9444 26.3882 30 26.4088C29.9566 26.5385 29.2262 28.9931 27.4488 31.5281C25.9127 33.7242 24.3215 35.9079 21.8101 35.9535C19.3428 35.9976 18.5475 34.523 15.7289 34.523C12.9085 34.523 12.0257 35.9079 9.69247 35.9976C7.26842 36.0872 5.42291 33.6261 3.87551 31.4421C0.712192 26.9724 -1.70641 18.8105 1.54121 13.3024C3.15351 10.5668 6.0353 8.83378 9.16212 8.78902C11.5434 8.74504 13.7892 10.3532 15.2458 10.3532C16.6816 10.3532 19.2548 8.47853 22.288 8.69779C23.4768 8.78388 26.8516 9.13057 29.0364 12.2748ZM20.4165 5.7472C21.7047 4.22592 22.5714 2.10727 22.3327 0C20.4787 0.0718451 18.2363 1.20676 16.9064 2.72708C15.7155 4.07384 14.6696 6.23083 14.9536 8.29509C17.0202 8.45112 19.1293 7.26942 20.4165 5.7472Z" fill="#6B6B6B"/>
</svg>
