<svg width="59" height="12" viewBox="0 0 59 12" fill="none" xmlns="http://www.w3.org/2000/svg">
<path d="M58.764 3.06538V0H47.318C44.9285 0 43.8517 1.45279 43.6748 2.86199V2.90557V0H40.3118V3.06538H43.66H58.764ZM43.66 4.16949L40.297 3.98063V7.5109C40.297 8.61501 39.7365 8.94915 37.7895 8.94915H35.105C33.4972 8.94915 32.8187 8.49879 32.8187 7.5109V3.64649L29.4115 3.39951V7.78692H29.3377C29.146 6.50847 28.6593 5.02664 25.4142 4.80872L14.75 4.11138C14.75 5.72397 15.9152 6.68281 17.7442 6.87167L25.1782 7.61259C25.7682 7.65618 26.196 7.83051 26.196 8.30993C26.196 8.83293 25.7535 8.89104 25.075 8.89104H14.6172V4.11138L11.21 3.89346V12H25.0898C28.1873 12 29.1755 10.4165 29.323 9.09443H29.3967C29.7802 11.1864 31.6387 12 34.7805 12H38.2467C41.9195 12 43.66 10.8959 43.66 8.30993V4.16949ZM54.4718 4.79419L43.8075 4.16949C43.8075 5.78208 44.8843 6.85714 46.7132 7.00242L54.3095 7.58354C54.8995 7.62712 55.2535 7.7724 55.2535 8.25182C55.2535 8.70218 54.8405 8.87651 53.985 8.87651H43.6305V12H54.2062C57.5397 12 59 10.8523 59 8.23729C59 5.88378 57.6873 4.99758 54.4718 4.79419ZM29.4115 0H32.8187V3.06538H29.4115V0ZM9.33675 3.74818L5.6345 3.38499L0 12H4.14475L9.33675 3.74818ZM28.792 0H18.3932C15.9742 0 14.9123 1.48184 14.6615 2.90557V0H8.89425C8.083 0 7.6995 0.246973 7.316 0.799031L5.723 3.06538H28.792V0Z" fill="#6B6B6B"/>
</svg>
