<svg width="93" height="12" viewBox="0 0 93 12" fill="none" xmlns="http://www.w3.org/2000/svg">
<path d="M22.0762 11.8698H19.377V0.0088237H22.0762V4.81478H28.0829V0.0088237H30.7822V11.8687H28.0829V6.90505H22.0762V11.8698ZM35.6772 7.11131C35.6772 9.2093 36.3383 10.0829 38.5704 10.0829C40.8025 10.0829 41.4349 9.20048 41.4349 7.11131V0.00772126H44.132V7.1775C44.2708 8.29488 44.0053 9.42439 43.3828 10.362C42.3251 11.5224 40.7904 12 38.5594 12C36.3283 12 34.7738 11.5224 33.7205 10.362C33.13 9.72442 32.9846 8.67984 32.9846 7.1775V0.00772126H35.6651L35.6772 7.11131ZM52.9558 0.00772126L58.4205 11.8687H55.4314L54.2526 9.04274H48.6778L47.5353 11.8687H44.6674L50.0935 0.00772126H52.9558ZM49.5437 6.93042H53.3668L51.42 2.37265L49.5437 6.93042ZM76.695 0.0088237L72.7288 11.8687H69.4235L66.7022 3.02675L64.3115 11.8809H61.0228L56.7513 0.0209589H59.6489L62.6236 9.13871L65.1245 0.0209589H68.3053L71.1786 9.13871L73.9473 0.0209589L76.695 0.0088237ZM80.3363 4.83133H87.8028V6.8874H80.311C80.3253 9.01847 81.2364 9.79281 83.3628 9.79281H87.7918V11.8588H83.2372C81.8225 11.9912 80.4057 11.6239 79.2356 10.8186C78.5515 10.2596 78.0147 9.54114 77.6724 8.72613C77.3301 7.91112 77.1927 7.02448 77.2723 6.14395C77.2723 1.95238 79.1839 0 83.3099 0H87.7907V2.0671H83.3617C81.4182 2.066 80.4366 2.95615 80.3264 4.8225M90.1803 0.0088237H93.0008V11.8698H90.1803V0.0088237Z" fill="#6B6B6B"/>
<path d="M6.6735 9.36061C6.6902 9.34632 6.69531 9.32249 6.68649 9.30201C5.5255 6.74358 4.0782 4.33274 2.37388 2.11825C2.37388 2.11825 1.01908 3.43799 1.11512 4.76249C1.16125 5.37967 1.44371 5.95291 1.90062 6.35666C3.08236 7.53966 5.94414 9.03282 6.60994 9.37061C6.63082 9.38253 6.65726 9.37824 6.67397 9.36109M6.23134 10.373C6.22691 10.36 6.21864 10.3487 6.20767 10.3406C6.19669 10.3326 6.18356 10.3283 6.17009 10.3283V10.3273L1.4051 10.4979C1.9215 11.4441 2.79702 12.1788 3.69851 11.9534C4.32395 11.7928 5.74185 10.7775 6.20396 10.435V10.4336C6.23969 10.4002 6.22716 10.3735 6.22716 10.3735M6.30325 9.93329C6.32645 9.89517 6.28469 9.86182 6.28469 9.86182L6.28516 9.85992C4.19728 8.41154 0.136605 6.18514 0.136605 6.18514C-0.0829075 6.88288 -0.0365724 7.64014 0.266264 8.30418C0.569101 8.96821 1.1059 9.48961 1.76839 9.7632C2.0594 9.88163 2.36709 9.95112 2.67963 9.96902C2.75108 9.98332 5.51357 9.97045 6.25314 9.96712C6.27402 9.96473 6.29258 9.95187 6.30232 9.93281M6.61968 0.00571777C6.41182 0.0247754 5.85227 0.155319 5.85227 0.155319C5.11317 0.348754 4.52392 0.920005 4.2924 1.66563C4.16163 2.17447 4.16387 2.70973 4.29889 3.2174C4.71972 5.13554 6.79228 8.28862 7.23676 8.94992C7.26831 8.98232 7.2943 8.97041 7.2943 8.97041C7.32121 8.96373 7.33977 8.93801 7.33837 8.90942H7.3393C8.02412 1.87098 6.62014 0 6.62014 0M8.19626 8.9685C8.22224 8.97946 8.25193 8.96802 8.26492 8.94229C8.7224 8.26289 10.7824 5.12744 11.2009 3.2174C11.3262 2.70856 11.329 2.1759 11.2088 1.66563C11.0934 1.29697 10.8881 0.964718 10.6125 0.700393C10.337 0.436068 10.0001 0.248442 9.6341 0.155319C9.6341 0.155319 9.26989 0.060985 8.88386 0.00524159C8.88386 0.00524159 7.47153 1.87193 8.15821 8.91466H8.15914C8.1596 8.93848 8.17399 8.9604 8.19626 8.9685ZM9.32371 10.3325C9.32371 10.3325 9.27731 10.3383 9.26989 10.3697C9.26432 10.3935 9.27128 10.4193 9.28845 10.4364C9.74314 10.7723 11.1258 11.7704 11.7939 11.9577C11.7939 11.9577 13.0257 12.3884 14.0952 10.5017L9.32464 10.3302L9.32371 10.3325ZM15.3646 6.17418C15.3646 6.17418 11.3141 8.40582 9.21931 9.85706C9.2088 9.86512 9.20092 9.87627 9.19669 9.88902C9.19247 9.90178 9.19211 9.91555 9.19565 9.92853C9.19565 9.92853 9.2156 9.96521 9.24483 9.96521V9.96616L12.9037 9.95664C13.185 9.93391 13.4615 9.8684 13.724 9.76225C14.4084 9.48687 14.9591 8.94563 15.2579 8.25575C15.5383 7.59802 15.5762 6.85802 15.3646 6.1737M8.83654 9.36585C8.8551 9.38014 8.88061 9.38205 8.90149 9.37061C9.58353 9.02091 12.4244 7.53775 13.6006 6.36095C14.0574 5.9541 14.3394 5.37871 14.3856 4.75963C14.4715 3.38987 13.1329 2.12254 13.1329 2.12254C11.432 4.33125 9.98707 6.73564 8.82726 9.28724H8.82865C8.81612 9.31344 8.82123 9.34441 8.84164 9.36537" fill="#6B6B6B"/>
</svg>
