<svg width="40" height="36" viewBox="0 0 40 36" fill="none" xmlns="http://www.w3.org/2000/svg">
<g clip-path="url(#clip0_141_303)">
<path fill-rule="evenodd" clip-rule="evenodd" d="M0.657574 12.8569H0.501953C0.526074 12.8835 0.551752 12.9094 0.577429 12.9352L0.657574 12.8569Z" fill="#647B97"/>
<path d="M29.6194 15.4287H27.6445V16.0716H29.6194V15.4287Z" fill="#647B97"/>
<path fill-rule="evenodd" clip-rule="evenodd" d="M27.6445 15.4287V16.0716V16.7146H29.6194V16.0716V15.4287H27.6445Z" fill="#647B97"/>
<mask id="mask0_141_303" style="mask-type:luminance" maskUnits="userSpaceOnUse" x="27" y="9" width="13" height="9">
<path d="M27.6445 15.4285V16.7143V17.3572H29.6194V16.7143H32.9107L33.569 16.0714L34.2273 15.4285L36.2021 13.4997L36.49 13.2185C36.7888 13.3971 37.1405 13.4997 37.5163 13.4997C38.1007 13.4997 38.6259 13.2512 38.9869 12.8568C39.1566 12.6713 39.2904 12.4532 39.3768 12.2138C39.4491 12.0132 39.4888 11.7981 39.4888 11.5732V11.5709C39.4888 11.2046 39.383 10.8619 39.2009 10.5708C39.078 10.3747 38.9208 10.2015 38.7364 10.0601L37.7894 10.985C37.7933 10.9873 37.798 10.9888 37.8019 10.9911L37.8058 10.9926C37.8058 10.9926 37.812 10.9956 37.8159 10.9971L37.819 10.9987C37.8237 11.0009 37.8276 11.0032 37.8315 11.0055H37.833C37.833 11.0055 37.84 11.0101 37.8439 11.0123L37.8478 11.0146C37.8478 11.0146 37.854 11.0184 37.8571 11.0199L37.8602 11.0222C37.8641 11.0245 37.868 11.0268 37.8719 11.0291L37.8743 11.0306C37.8743 11.0306 37.8805 11.0344 37.8836 11.0367L37.8875 11.0389C37.8875 11.0389 37.8937 11.0427 37.896 11.045L37.8992 11.0473C37.8992 11.0473 37.9069 11.0526 37.91 11.0549L37.9132 11.0572C37.9132 11.0572 37.9186 11.0617 37.9217 11.064L37.9248 11.0663C37.9248 11.0663 37.9318 11.0716 37.9349 11.0747V11.0754C37.9388 11.0785 37.942 11.0815 37.9458 11.0845L37.949 11.0876C37.949 11.0876 37.9544 11.0921 37.9567 11.0944L37.9598 11.0975C37.9598 11.0975 37.9669 11.1035 37.97 11.1066L37.9715 11.1081C37.9715 11.1081 37.9777 11.1134 37.9801 11.1165L37.9832 11.1195C37.9832 11.1195 37.9886 11.1248 37.991 11.1271L37.9933 11.1294C37.9933 11.1294 37.9995 11.1362 38.0026 11.1393L38.005 11.1415C38.005 11.1415 38.0096 11.1469 38.012 11.1491L38.0151 11.1522C38.0151 11.1522 38.0198 11.1583 38.0229 11.1605L38.0244 11.1628C38.0244 11.1628 38.0307 11.1697 38.033 11.1735L38.0353 11.1765C38.0353 11.1765 38.04 11.1818 38.0423 11.1849L38.0447 11.1879C38.0447 11.1879 38.0493 11.1947 38.0524 11.1978V11.1993C38.0524 11.1993 38.0587 11.2069 38.061 11.2107L38.0633 11.2145C38.0633 11.2145 38.0672 11.2198 38.0688 11.2229L38.0711 11.2267C38.0734 11.2305 38.0758 11.2343 38.0789 11.2381C38.0812 11.2426 38.0836 11.2464 38.0859 11.2502L38.0882 11.2533C38.0882 11.2533 38.0921 11.2593 38.0937 11.2624L38.0952 11.2654C38.0976 11.2692 38.0999 11.2738 38.1022 11.2776V11.2799C38.1022 11.2799 38.1069 11.2867 38.1085 11.2905L38.11 11.2943C38.11 11.2943 38.1131 11.3011 38.1147 11.3042L38.1162 11.3072C38.1178 11.3118 38.1201 11.3156 38.1217 11.3201L38.1232 11.3232C38.1232 11.3232 38.1264 11.33 38.1271 11.333L38.1287 11.3368C38.1287 11.3368 38.1318 11.3444 38.1334 11.3482V11.3505C38.1357 11.3551 38.1373 11.3596 38.1388 11.3642L38.1404 11.368C38.1404 11.368 38.1427 11.3748 38.1435 11.3779L38.145 11.3824C38.1481 11.3916 38.1505 11.4007 38.1528 11.4098V11.4136C38.1528 11.4136 38.1559 11.4204 38.1567 11.4242V11.428C38.159 11.4326 38.1598 11.4372 38.1606 11.4417V11.4432C38.1622 11.447 38.1629 11.4516 38.1637 11.4554V11.4592C38.1653 11.463 38.166 11.4668 38.166 11.4706V11.4736C38.1676 11.4782 38.1676 11.4828 38.1684 11.4881V11.4919C38.1684 11.4919 38.1699 11.4995 38.1699 11.5025V11.5071C38.1707 11.5116 38.1715 11.5154 38.1715 11.52V11.5215C38.1715 11.5261 38.1723 11.5314 38.1723 11.536V11.5405C38.1723 11.5443 38.1723 11.5481 38.1723 11.5519V11.5557C38.1723 11.561 38.1723 11.5656 38.1723 11.5709C38.1723 11.5762 38.1723 11.5816 38.1723 11.5876C38.1723 11.5907 38.1723 11.5937 38.1723 11.596C38.1723 11.5983 38.1723 11.6013 38.1723 11.6036C38.1723 11.6089 38.1723 11.6142 38.1715 11.6203C38.1715 11.6256 38.1707 11.631 38.1699 11.6363C38.1699 11.6416 38.1684 11.6469 38.1684 11.6522C38.1684 11.6576 38.1668 11.6629 38.166 11.6682C38.1653 11.6735 38.1645 11.6788 38.1637 11.6842C38.1629 11.6895 38.1614 11.6948 38.1606 11.7001C38.1598 11.7054 38.1583 11.7107 38.1575 11.7161C38.1559 11.7214 38.1551 11.7267 38.1536 11.7313C38.152 11.7366 38.1505 11.7419 38.1497 11.7465C38.1481 11.7518 38.1466 11.7563 38.145 11.7617C38.1435 11.767 38.1419 11.7715 38.1404 11.7769C38.1388 11.7822 38.1373 11.7867 38.1349 11.7921C38.1334 11.7974 38.131 11.8019 38.1295 11.8065C38.1279 11.8111 38.1256 11.8164 38.1232 11.8209C38.1209 11.8255 38.1194 11.8308 38.117 11.8354C38.1147 11.8399 38.1124 11.8445 38.11 11.8498C38.1077 11.8544 38.1054 11.8589 38.103 11.8635C38.1007 11.8681 38.0983 11.8726 38.0952 11.8772C38.0929 11.8817 38.0898 11.8863 38.0875 11.8909C38.0851 11.8954 38.082 11.9 38.0797 11.9045C38.0766 11.9091 38.0742 11.9137 38.0711 11.9175C38.068 11.922 38.0657 11.9258 38.0626 11.9304C38.0594 11.9349 38.0563 11.9387 38.0532 11.9433C38.0501 11.9479 38.047 11.9517 38.0439 11.9555C38.0408 11.9593 38.0377 11.9638 38.0345 11.9676C38.0314 11.9714 38.0283 11.976 38.0244 11.9798C38.0213 11.9836 38.0174 11.9874 38.0143 11.9919C38.0112 11.9957 38.0073 11.9995 38.0042 12.0033C38.0003 12.0071 37.9972 12.0109 37.9933 12.0147C37.9933 12.0147 37.9863 12.0223 37.9824 12.0261C37.9785 12.0299 37.9746 12.033 37.9707 12.0368C37.9668 12.0406 37.963 12.0436 37.9591 12.0474C37.9552 12.0512 37.9513 12.0543 37.9474 12.0573C37.9435 12.0603 37.9396 12.0641 37.9349 12.0672C37.9272 12.074 37.9186 12.0801 37.91 12.0862C37.9062 12.0892 37.9015 12.0922 37.8976 12.0953C37.8929 12.0983 37.889 12.1014 37.8844 12.1044C37.8797 12.1074 37.8758 12.1105 37.8711 12.1128C37.8665 12.1158 37.8626 12.1181 37.8579 12.1211C37.8532 12.1242 37.8486 12.1264 37.8439 12.1287C37.8346 12.134 37.8252 12.1386 37.8159 12.1439C37.8112 12.1462 37.8066 12.1485 37.8019 12.1508C37.7972 12.153 37.7926 12.1553 37.7871 12.1576C37.7824 12.1599 37.7778 12.1622 37.7723 12.1637C37.7677 12.166 37.7622 12.1675 37.7575 12.1698C37.7529 12.172 37.7474 12.1736 37.7428 12.1751C37.7326 12.1789 37.7225 12.1819 37.7124 12.185C37.7023 12.188 37.6914 12.191 37.6813 12.1933C37.6292 12.2062 37.5739 12.2138 37.5171 12.2138C37.5117 12.2138 37.507 12.2138 37.5015 12.2138H37.4977C37.4938 12.2138 37.4899 12.2138 37.486 12.2138H37.4813C37.4766 12.2138 37.4712 12.2131 37.4665 12.2123H37.465C37.4603 12.2123 37.4564 12.2116 37.4517 12.2108H37.4471C37.4471 12.2108 37.4393 12.2093 37.4362 12.2093H37.4323C37.4276 12.2085 37.423 12.2078 37.4175 12.207H37.4144C37.4105 12.2062 37.4066 12.2055 37.4027 12.2047H37.3988C37.3949 12.2032 37.3903 12.2024 37.3864 12.2017H37.3848C37.3802 12.2002 37.3755 12.1994 37.3708 12.1986H37.3669C37.3669 12.1986 37.3599 12.1964 37.356 12.1948H37.3521C37.3428 12.191 37.3335 12.1888 37.3241 12.1857L37.3195 12.1842C37.3195 12.1842 37.3125 12.1819 37.3094 12.1812L37.3055 12.1796C37.3008 12.1781 37.2961 12.1766 37.2915 12.1751H37.2891C37.2891 12.1751 37.2813 12.1713 37.2774 12.1698L37.2736 12.1682C37.2736 12.1682 37.2666 12.1652 37.2634 12.1644L37.2603 12.1629C37.2557 12.1614 37.2518 12.1591 37.2471 12.1576L37.244 12.1561C37.244 12.1561 37.237 12.153 37.2339 12.1515L37.23 12.15C37.23 12.15 37.223 12.1462 37.2191 12.1447H37.2168C37.2129 12.1416 37.2082 12.1394 37.2043 12.1371L37.2012 12.1356C37.2012 12.1356 37.195 12.1318 37.1919 12.1302L37.1887 12.128C37.1849 12.1257 37.181 12.1234 37.1771 12.1211C37.1732 12.1181 37.1693 12.1158 37.1654 12.1135L37.1615 12.1112C37.1615 12.1112 37.1561 12.1074 37.153 12.1059L37.1491 12.1036C37.1491 12.1036 37.1413 12.0983 37.1374 12.096H37.1358C37.1358 12.096 37.1288 12.09 37.1257 12.0877L37.1226 12.0854C37.1226 12.0854 37.1172 12.0808 37.114 12.0786L37.1109 12.0763C37.1109 12.0763 37.1039 12.071 37.1 12.0679L37.0977 12.0664C37.0977 12.0664 37.0915 12.0618 37.0891 12.0588L37.086 12.0558C37.086 12.0558 37.0806 12.0512 37.0783 12.0489L37.0759 12.0467C37.0759 12.0467 37.0689 12.0406 37.0658 12.0375L37.0635 12.0353C37.0635 12.0353 37.058 12.0307 37.0557 12.0277L37.0526 12.0246C37.0526 12.0246 37.0471 12.0185 37.044 12.0163L37.0425 12.0147C37.0425 12.0147 37.0362 12.0079 37.0331 12.0049L37.03 12.0018C37.03 12.0018 37.0253 11.9973 37.023 11.9942L37.0199 11.9912C37.0199 11.9912 37.0137 11.9843 37.0106 11.9805V11.9798C37.0074 11.9767 37.0051 11.9729 37.002 11.9699L36.9997 11.9669C36.9997 11.9669 36.995 11.9615 36.9927 11.9585L36.9903 11.9555C36.9903 11.9555 36.9849 11.9479 36.9825 11.9448L36.9802 11.9418C36.9802 11.9418 36.9763 11.9357 36.974 11.9334L36.9717 11.9296C36.9717 11.9296 36.9678 11.9235 36.9654 11.9205L36.9639 11.9182C36.9615 11.9144 36.9592 11.9106 36.9561 11.9068L36.9538 11.9038C36.9538 11.9038 36.9499 11.8977 36.9483 11.8947L36.946 11.8909C36.946 11.8909 36.9421 11.884 36.9398 11.8802V11.8787C36.9366 11.8749 36.9343 11.8703 36.932 11.8665L36.9304 11.8635C36.9304 11.8635 36.9273 11.8574 36.9257 11.8536L36.9242 11.8498C36.9219 11.846 36.9203 11.8415 36.9187 11.8377C36.9164 11.8331 36.9149 11.8285 36.9125 11.824C36.9102 11.8187 36.9086 11.8141 36.9071 11.8095C36.9055 11.8042 36.9032 11.7997 36.9016 11.7943C36.8977 11.7845 36.8946 11.7746 36.8915 11.7647C36.89 11.7594 36.8884 11.7541 36.8868 11.7495C36.8853 11.7442 36.8837 11.7396 36.883 11.7343C36.8814 11.729 36.8806 11.7244 36.8791 11.7191V11.7183C36.8775 11.713 36.8767 11.7085 36.8759 11.7031C36.8736 11.6925 36.8721 11.6819 36.8705 11.6712C36.8697 11.6659 36.8689 11.6606 36.8682 11.6553C36.8682 11.6492 36.8666 11.6439 36.8666 11.6386C36.8666 11.6332 36.8658 11.6279 36.8651 11.6226C36.8651 11.6173 36.8651 11.612 36.8643 11.6066C36.8643 11.6006 36.8643 11.5952 36.8643 11.5899C36.8643 11.5846 36.8643 11.5785 36.8643 11.5732C36.8643 11.2183 37.1592 10.9303 37.5226 10.9303C37.528 10.9303 37.5342 10.9303 37.5397 10.9303C37.5451 10.9303 37.5506 10.9303 37.556 10.9303H37.5568C37.5622 10.9303 37.5677 10.9303 37.5731 10.931C37.5786 10.931 37.584 10.9318 37.5895 10.9326C37.5949 10.9326 37.6004 10.9341 37.6058 10.9341C37.6113 10.9348 37.6167 10.9356 37.6222 10.9364C37.633 10.9379 37.6439 10.9402 37.6541 10.9417C37.6595 10.9424 37.6642 10.944 37.6696 10.9447C37.6743 10.9462 37.6797 10.947 37.6844 10.9485C37.6898 10.95 37.6945 10.9516 37.7 10.9531C37.7054 10.9546 37.7101 10.9561 37.7147 10.9576C37.7249 10.9607 37.735 10.9645 37.7451 10.9675C37.7498 10.969 37.7552 10.9713 37.7599 10.9728C37.7645 10.9751 37.7692 10.9766 37.7739 10.9789H37.7747C37.7793 10.9812 37.784 10.9835 37.7887 10.985L38.7356 10.0601C38.4003 9.80173 37.9762 9.64746 37.5156 9.64746C36.427 9.64746 35.5446 10.5085 35.5431 11.5717V11.574C35.5431 11.7989 35.5827 12.014 35.6551 12.2146C35.7275 12.416 35.8333 12.6014 35.9663 12.7656L35.873 12.8568L35.2147 13.4997L33.2399 15.4285L32.9107 15.7499L32.5816 16.0714H29.6194V15.4285H27.6445Z" fill="white"/>
</mask>
<g mask="url(#mask0_141_303)">
<path d="M39.4873 9.64746H27.6445V17.3572H39.4873V9.64746Z" fill="url(#paint0_linear_141_303)"/>
</g>
<mask id="mask1_141_303" style="mask-type:luminance" maskUnits="userSpaceOnUse" x="27" y="7" width="6" height="3">
<path d="M29.6194 8.35701V7.71484H27.6445V8.35701V9.00069V9.64362H29.6194V9.00069H32.9107V8.35701H29.6194Z" fill="white"/>
</mask>
<g mask="url(#mask1_141_303)">
<path d="M32.91 7.71484H27.6445V9.64362H32.91V7.71484Z" fill="url(#paint1_linear_141_303)"/>
</g>
<mask id="mask2_141_303" style="mask-type:luminance" maskUnits="userSpaceOnUse" x="27" y="11" width="6" height="3">
<path d="M29.6194 11.5718H27.6445V12.2139V12.8569V13.4998H29.6194V12.8569H32.9107V12.2139H29.6194V11.5718Z" fill="white"/>
</mask>
<g mask="url(#mask2_141_303)">
<path d="M32.91 11.5718H27.6445V13.5006H32.91V11.5718Z" fill="url(#paint2_linear_141_303)"/>
</g>
<mask id="mask3_141_303" style="mask-type:luminance" maskUnits="userSpaceOnUse" x="27" y="19" width="6" height="3">
<path d="M29.6194 19.2866H27.6445V19.9295V20.5717V21.2146H29.6194V20.5717H32.9107V19.9295H29.6194V19.2866Z" fill="white"/>
</mask>
<g mask="url(#mask3_141_303)">
<path d="M32.91 19.2866H27.6445V21.2154H32.91V19.2866Z" fill="url(#paint3_linear_141_303)"/>
</g>
<mask id="mask4_141_303" style="mask-type:luminance" maskUnits="userSpaceOnUse" x="27" y="23" width="6" height="3">
<path d="M29.6194 23.1431H27.6445V23.786V24.4289V25.0718H29.6194V24.4289H32.9107V23.786H29.6194V23.1431Z" fill="white"/>
</mask>
<g mask="url(#mask4_141_303)">
<path d="M32.91 23.1431H27.6445V25.0718H32.91V23.1431Z" fill="url(#paint4_linear_141_303)"/>
</g>
<mask id="mask5_141_303" style="mask-type:luminance" maskUnits="userSpaceOnUse" x="21" y="-1" width="7" height="7">
<path d="M25.0121 1.92829L21.7207 5.14291H23.0373L25.0121 3.2149L25.7871 2.45798C25.952 2.53093 26.1357 2.57121 26.3286 2.57121C27.0554 2.57121 27.6452 1.99592 27.6452 1.28536C27.6452 0.5748 27.0562 -0.000488281 26.3286 -0.000488281C25.6011 -0.000488281 25.0121 0.5748 25.0121 1.28536C25.0121 1.47383 25.0533 1.65318 25.128 1.81429L25.0121 1.92753V1.92829ZM25.6696 1.28612C25.6696 0.931221 25.9645 0.643197 26.3279 0.643197C26.6912 0.643197 26.9861 0.931221 26.9861 1.28612C26.9861 1.64102 26.6912 1.92905 26.3279 1.92905C25.9645 1.92905 25.6696 1.64102 25.6696 1.28612Z" fill="white"/>
</mask>
<g mask="url(#mask5_141_303)">
<path d="M27.6452 0.000488281H21.7207V5.14313H27.6452V0.000488281Z" fill="url(#paint5_linear_141_303)"/>
</g>
<mask id="mask6_141_303" style="mask-type:luminance" maskUnits="userSpaceOnUse" x="11" y="0" width="7" height="6">
<path d="M13.8233 1.28737C13.8233 1.28737 13.8233 1.29421 13.8233 1.29725C13.8233 1.29953 13.8233 1.30105 13.8233 1.30333C13.8233 1.30713 13.8233 1.31017 13.8233 1.31397C13.8233 1.31625 13.8233 1.31777 13.8233 1.32005C13.8233 1.32309 13.8233 1.32689 13.8233 1.32993C13.8233 1.33221 13.8233 1.33449 13.8233 1.33677C13.8233 1.33981 13.8233 1.34285 13.8225 1.34665C13.8225 1.34893 13.8225 1.35121 13.8225 1.35349C13.8225 1.35653 13.8225 1.35881 13.8217 1.36185C13.8217 1.36413 13.8217 1.36717 13.8209 1.36945C13.8209 1.37249 13.8209 1.37477 13.8201 1.3778C13.8201 1.38008 13.8201 1.38312 13.8194 1.3854C13.8194 1.38844 13.8186 1.39072 13.8178 1.39376C13.8178 1.39604 13.817 1.39908 13.8163 1.40136C13.8163 1.4044 13.8155 1.40744 13.8147 1.41048C13.8147 1.41276 13.8139 1.41504 13.8131 1.41732C13.8131 1.42112 13.8116 1.42492 13.8108 1.42796C13.8108 1.42948 13.8108 1.431 13.81 1.43252C13.81 1.43556 13.8085 1.4386 13.8077 1.4424C13.8077 1.44468 13.8069 1.4462 13.8061 1.44848C13.8061 1.45076 13.8046 1.4538 13.8038 1.45608C13.8038 1.45836 13.8023 1.4614 13.8015 1.46368C13.8015 1.46596 13.7999 1.469 13.7991 1.47128C13.7991 1.47356 13.7976 1.4766 13.7968 1.47888C13.796 1.48192 13.7945 1.48496 13.7937 1.488C13.7937 1.48952 13.7921 1.4918 13.7921 1.49408C13.7914 1.49712 13.7898 1.50016 13.789 1.50396C13.789 1.50548 13.7875 1.50776 13.7875 1.50928C13.7867 1.51232 13.7851 1.5146 13.7844 1.51764C13.7836 1.51992 13.7828 1.5222 13.782 1.52372C13.7805 1.52676 13.7797 1.5298 13.7781 1.53284C13.7781 1.53436 13.7766 1.53664 13.7758 1.53816C13.7742 1.54196 13.7727 1.54576 13.7711 1.5488L13.7696 1.55184C13.7696 1.55184 13.7665 1.55868 13.7641 1.56247L13.7626 1.56627C13.7626 1.56627 13.7595 1.57235 13.7579 1.57615C13.7579 1.57767 13.7563 1.57919 13.7556 1.58071C13.754 1.58299 13.7525 1.58603 13.7517 1.58831C13.7509 1.59059 13.7493 1.59211 13.7486 1.59439C13.747 1.59667 13.7462 1.59895 13.7447 1.60047C13.7431 1.60275 13.7423 1.60503 13.7408 1.60731C13.7392 1.60959 13.7377 1.61187 13.7369 1.61415C13.7353 1.61643 13.7346 1.61795 13.733 1.62023C13.7314 1.62251 13.7299 1.62479 13.7291 1.62707C13.7276 1.62935 13.726 1.63163 13.7244 1.63391C13.7229 1.63619 13.7213 1.63847 13.7198 1.64075C13.7182 1.64227 13.7174 1.64455 13.7159 1.64607C13.7143 1.64835 13.712 1.65139 13.7104 1.65367C13.7089 1.65519 13.7081 1.65747 13.7065 1.65899C13.705 1.66127 13.7027 1.66431 13.7011 1.66659C13.6995 1.66811 13.6988 1.66963 13.6972 1.67191C13.6949 1.67495 13.6933 1.67723 13.691 1.68027C13.6902 1.68179 13.6886 1.68331 13.6879 1.68483C13.6848 1.68863 13.6816 1.69243 13.6785 1.69547H13.6778C13.6778 1.69547 13.6731 1.70155 13.6715 1.70383C13.67 1.70535 13.6692 1.70687 13.6676 1.70839C13.6669 1.70991 13.6653 1.71067 13.6645 1.71219C13.6622 1.71523 13.6599 1.71751 13.6567 1.72055C13.6536 1.72435 13.6497 1.72815 13.6466 1.73195C13.6466 1.73195 13.6396 1.73955 13.6357 1.74259C13.6357 1.74259 13.6287 1.75018 13.6248 1.75322C13.6248 1.75322 13.6171 1.76006 13.6132 1.76386C13.6132 1.76386 13.6054 1.7707 13.6015 1.77374C13.5976 1.77754 13.5937 1.78058 13.5898 1.78362C13.5898 1.78362 13.5828 1.7897 13.5789 1.79198H13.5774V1.7935C13.5735 1.79654 13.5688 1.79958 13.5649 1.80262C13.561 1.80566 13.5564 1.8087 13.5525 1.81174C13.5486 1.81478 13.5439 1.81782 13.5393 1.82086C13.5346 1.8239 13.5307 1.82694 13.526 1.82922C13.5214 1.83226 13.5175 1.83454 13.5128 1.83758C13.5081 1.84062 13.5035 1.8429 13.4996 1.84518C13.4949 1.84746 13.4902 1.8505 13.4856 1.85278C13.4809 1.85506 13.4762 1.85734 13.4716 1.86038C13.4669 1.86266 13.4622 1.86494 13.4576 1.86722C13.4529 1.8695 13.4482 1.87178 13.4428 1.87406C13.4381 1.87634 13.4327 1.87862 13.428 1.88014C13.4233 1.88242 13.4179 1.88394 13.4132 1.88622C13.4085 1.8885 13.4031 1.89002 13.3984 1.89154C13.3937 1.89306 13.3883 1.89534 13.3836 1.89686C13.379 1.89838 13.3735 1.8999 13.3681 1.90142C13.3626 1.90294 13.358 1.90446 13.3525 1.90598C13.3471 1.9075 13.3424 1.90902 13.3369 1.90978C13.3315 1.9113 13.3268 1.91206 13.3214 1.91358C13.3214 1.91358 13.3175 1.91434 13.3159 1.9151C13.312 1.9151 13.3089 1.91662 13.305 1.91738C13.2996 1.91814 13.2941 1.91966 13.2895 1.92042C13.2895 1.92042 13.284 1.92118 13.2809 1.92194C13.2786 1.92194 13.2755 1.9227 13.2731 1.92346C13.2677 1.92422 13.2622 1.92498 13.2568 1.92574C13.2568 1.92574 13.2514 1.92574 13.249 1.9265C13.2459 1.9265 13.2436 1.9265 13.2405 1.92726C13.2397 1.92726 13.2381 1.92726 13.2373 1.92726C13.2327 1.92726 13.2288 1.92801 13.2241 1.92877C13.2226 1.92877 13.221 1.92877 13.2202 1.92877C13.2163 1.92877 13.2117 1.92877 13.2078 1.92953H13.2062C13.2016 1.92953 13.1961 1.92953 13.1914 1.92953C13.1891 1.92953 13.186 1.92953 13.1837 1.92953C13.1805 1.92953 13.1774 1.92953 13.1743 1.92953C12.8109 1.92953 12.516 1.64151 12.516 1.28661C12.516 0.931709 12.8109 0.643685 13.1743 0.643685C13.5377 0.643685 13.8326 0.931709 13.8326 1.28661V1.28813L13.8233 1.28737ZM17.7721 5.14264L14.4808 1.92802L14.364 1.81554C14.4387 1.65367 14.4808 1.47432 14.4808 1.28585C14.4808 0.576049 13.8917 0 13.1642 0C12.4367 0 11.8477 0.575289 11.8477 1.28585C11.8477 1.99641 12.4367 2.5717 13.1642 2.5717C13.3572 2.5717 13.5408 2.53142 13.7058 2.45847L14.48 3.21462L16.4548 5.1434H17.7714L17.7721 5.14264Z" fill="white"/>
</mask>
<g mask="url(#mask6_141_303)">
<path d="M17.7721 0H11.8477V5.14264H17.7721V0Z" fill="url(#paint6_linear_141_303)"/>
</g>
<path fill-rule="evenodd" clip-rule="evenodd" d="M3.44727 12.8571H3.62078L3.52663 12.7651C3.50095 12.7963 3.4745 12.8275 3.44727 12.8571Z" fill="#647B97"/>
<mask id="mask7_141_303" style="mask-type:luminance" maskUnits="userSpaceOnUse" x="-1" y="9" width="13" height="9">
<path d="M0.11165 12.2141H1.97365H0.11165ZM9.87218 16.7138V17.3567H11.847V15.4279H9.87218V16.0709H6.90994L6.5808 15.7494L6.25166 15.4279L4.27684 13.4992L3.61856 12.8562H3.44504C3.47228 12.8266 3.49873 12.7954 3.52441 12.7643C3.65669 12.6001 3.76251 12.4147 3.83565 12.2133C3.90802 12.0119 3.9477 11.7961 3.9477 11.5704C3.9477 10.5049 3.06377 9.6416 1.97287 9.6416C1.25857 9.6416 0.633757 10.0117 0.286723 10.5665C0.103869 10.8591 -0.00195312 11.2026 -0.00195312 11.5704C-0.00195312 11.7961 0.0377301 12.0119 0.110094 12.2133C0.196463 12.4527 0.330297 12.6708 0.500702 12.8562H0.656322L0.576178 12.9345C0.92788 13.278 1.41186 13.4923 1.94642 13.4992H1.99777C2.36426 13.4946 2.7074 13.392 2.99997 13.218L3.28787 13.4992L5.26269 15.4279L5.92097 16.0709L6.57924 16.7138H9.87062H9.87218ZM2.42806 12.0362C2.42028 12.0431 2.4125 12.0499 2.40472 12.0567L2.42806 12.0362ZM2.46152 12.0028C2.45452 12.0104 2.44752 12.018 2.43973 12.0248L2.46152 12.0028ZM2.49187 11.9671C2.48564 11.9754 2.47864 11.983 2.47164 11.9906L2.49187 11.9671ZM2.5012 11.9549C2.49809 11.9587 2.49498 11.9633 2.49187 11.9671L2.5012 11.9549ZM1.31615 11.5704C1.31615 11.2155 1.61105 10.9275 1.97443 10.9275C2.3378 10.9275 2.6327 11.2155 2.6327 11.5704C2.6327 11.5757 2.6327 11.5818 2.6327 11.5871C2.6327 11.5924 2.6327 11.5977 2.6327 11.6038C2.6327 11.6091 2.6327 11.6145 2.63193 11.6205C2.63193 11.6259 2.63115 11.6312 2.63037 11.6365C2.63037 11.6418 2.62881 11.6471 2.62881 11.6525C2.62881 11.6578 2.62726 11.6631 2.62648 11.6684C2.6257 11.6737 2.62492 11.6791 2.62415 11.6844C2.62337 11.6897 2.62181 11.695 2.62103 11.7003C2.62025 11.7056 2.6187 11.711 2.61792 11.7163C2.61636 11.7216 2.61559 11.7269 2.61403 11.7315C2.61247 11.7368 2.61092 11.7421 2.61014 11.7467C2.60858 11.752 2.60703 11.7566 2.60547 11.7619C2.60391 11.7672 2.60236 11.7718 2.6008 11.7771C2.59925 11.7824 2.59691 11.787 2.59536 11.7923C2.5938 11.7968 2.59146 11.8022 2.58991 11.8067C2.58835 11.8113 2.58602 11.8166 2.58368 11.8212C2.58135 11.8257 2.57979 11.831 2.57746 11.8356C2.57279 11.8455 2.5689 11.8546 2.56423 11.8637C2.5619 11.8683 2.55956 11.8728 2.55645 11.8774C2.55412 11.882 2.551 11.8865 2.54867 11.8911C2.54633 11.8956 2.54322 11.9002 2.54089 11.9048C2.53778 11.9093 2.53544 11.9139 2.53233 11.9177C2.52922 11.9222 2.52688 11.926 2.52377 11.9306C2.52066 11.9352 2.51754 11.939 2.51443 11.9435C2.51132 11.9481 2.50821 11.9519 2.5051 11.9557C2.50198 11.9595 2.49887 11.964 2.49576 11.9678C2.48953 11.9762 2.48253 11.9838 2.47553 11.9914C2.47241 11.9952 2.46852 11.999 2.46541 12.0028C2.45841 12.0104 2.45141 12.018 2.44363 12.0248C2.44363 12.0248 2.43584 12.0324 2.43273 12.0355C2.42495 12.0423 2.41717 12.0492 2.40939 12.056C2.4055 12.059 2.40161 12.0628 2.39772 12.0659C2.31679 12.1312 2.21875 12.1783 2.11138 12.1996C2.10593 12.2004 2.10048 12.2019 2.09504 12.2027C2.08959 12.2034 2.08414 12.2042 2.07869 12.2049C2.07325 12.2057 2.0678 12.2065 2.06235 12.2072C2.05691 12.2072 2.05146 12.2087 2.04601 12.2087C2.04057 12.2087 2.03512 12.2095 2.02967 12.2103C2.02423 12.2103 2.01878 12.2103 2.01256 12.211C2.00711 12.211 2.00166 12.211 1.99544 12.211C1.98999 12.211 1.98377 12.211 1.97832 12.211C1.97287 12.211 1.96665 12.211 1.9612 12.211C1.95575 12.211 1.95031 12.211 1.94408 12.211C1.93864 12.211 1.93319 12.211 1.92774 12.2103C1.9223 12.2103 1.91685 12.2095 1.9114 12.2087C1.90596 12.2087 1.90051 12.2072 1.89506 12.2072C1.88962 12.2072 1.88417 12.2057 1.87872 12.2049C1.87328 12.2042 1.86783 12.2034 1.86238 12.2027C1.85694 12.2019 1.85149 12.2004 1.84604 12.1996C1.8406 12.1989 1.83515 12.1973 1.83048 12.1966C1.82503 12.1951 1.81959 12.1943 1.81492 12.1928C1.80947 12.1913 1.8048 12.1897 1.79936 12.189C1.79391 12.1875 1.78924 12.1859 1.78379 12.1844C1.77835 12.1829 1.77368 12.1814 1.76823 12.1799C1.76278 12.1783 1.75812 12.1761 1.75345 12.1745C1.74878 12.173 1.74333 12.1707 1.73866 12.1692C1.734 12.1669 1.72855 12.1654 1.72388 12.1631C1.71921 12.1609 1.71376 12.1593 1.7091 12.1571C1.70443 12.1548 1.69976 12.1525 1.69431 12.1502C1.68964 12.1479 1.68497 12.1457 1.68031 12.1434C1.67564 12.1411 1.67097 12.1388 1.6663 12.1358C1.66163 12.1335 1.65696 12.1305 1.65229 12.1282C1.64763 12.1259 1.64296 12.1229 1.63829 12.1206C1.63362 12.1175 1.62895 12.1153 1.62506 12.1122C1.62039 12.1092 1.6165 12.1069 1.61183 12.1039C1.60716 12.1008 1.60327 12.0978 1.59861 12.0947C1.59394 12.0917 1.59005 12.0887 1.58616 12.0856C1.58226 12.0826 1.5776 12.0795 1.57371 12.0765C1.56982 12.0735 1.56515 12.0704 1.56126 12.0666C1.56126 12.0666 1.55892 12.0651 1.55814 12.0643C1.55114 12.0583 1.54414 12.053 1.53714 12.0469C1.53714 12.0469 1.52935 12.04 1.52546 12.0362C1.52546 12.0362 1.51768 12.0294 1.51457 12.0256C1.51457 12.0256 1.50757 12.018 1.50368 12.0142C1.50368 12.0142 1.49667 12.0066 1.49278 12.0028C1.48578 11.9952 1.47878 11.9876 1.47177 11.9792C1.46866 11.9754 1.46477 11.9716 1.46166 11.9671C1.45855 11.9633 1.45543 11.9587 1.45232 11.9549C1.43676 11.9344 1.42198 11.9124 1.40875 11.8903C1.40097 11.8766 1.39319 11.863 1.38618 11.8493C1.35584 11.7885 1.33561 11.7224 1.32627 11.6525C1.32316 11.6259 1.32082 11.5985 1.32082 11.5704H1.31615Z" fill="white"/>
</mask>
<g mask="url(#mask7_141_303)">
<path d="M11.8474 9.64307H0V17.3574H11.8474V9.64307Z" fill="url(#paint7_linear_141_303)"/>
</g>
<mask id="mask8_141_303" style="mask-type:luminance" maskUnits="userSpaceOnUse" x="6" y="11" width="6" height="3">
<path d="M6.58203 12.8569H9.87341V13.4998H11.8475V12.8569V12.2139V11.5718H9.87341V12.2139H6.58203V12.8569Z" fill="white"/>
</mask>
<g mask="url(#mask8_141_303)">
<path d="M11.8475 11.5718H6.58203V13.5006H11.8475V11.5718Z" fill="url(#paint8_linear_141_303)"/>
</g>
<mask id="mask9_141_303" style="mask-type:luminance" maskUnits="userSpaceOnUse" x="6" y="7" width="6" height="3">
<path d="M6.58203 9.00021H9.87341V9.64313H11.8475V9.00021V8.35652V7.71436H9.87341V8.35652H6.58203V9.00021Z" fill="white"/>
</mask>
<g mask="url(#mask9_141_303)">
<path d="M11.8475 7.71436H6.58203V9.64313H11.8475V7.71436Z" fill="url(#paint9_linear_141_303)"/>
</g>
<mask id="mask10_141_303" style="mask-type:luminance" maskUnits="userSpaceOnUse" x="6" y="19" width="6" height="3">
<path d="M11.8475 19.9291V19.2861H9.87341V19.9291H6.58203V20.5712H9.87341V21.2141H11.8475V20.5712V19.9291Z" fill="white"/>
</mask>
<g mask="url(#mask10_141_303)">
<path d="M11.8475 19.2861H6.58203V21.2149H11.8475V19.2861Z" fill="url(#paint10_linear_141_303)"/>
</g>
<mask id="mask11_141_303" style="mask-type:luminance" maskUnits="userSpaceOnUse" x="6" y="23" width="6" height="3">
<path d="M11.8475 23.786V23.1431H9.87341V23.786H6.58203V24.4289H9.87341V25.0718H11.8475V24.4289V23.786Z" fill="white"/>
</mask>
<g mask="url(#mask11_141_303)">
<path d="M11.8475 23.1431H6.58203V25.0718H11.8475V23.1431Z" fill="url(#paint11_linear_141_303)"/>
</g>
<mask id="mask12_141_303" style="mask-type:luminance" maskUnits="userSpaceOnUse" x="11" y="5" width="17" height="24">
<path d="M14.48 9.52173C14.48 8.52771 15.3125 7.71455 16.3303 7.71455H14.48H25.0116H23.1613C24.179 7.71455 25.0116 8.52771 25.0116 9.52173V23.9077C25.0116 24.9018 24.179 25.7149 23.1613 25.7149H16.3303C15.3125 25.7149 14.48 24.9018 14.48 23.9077V9.52173ZM25.0116 28.2859H26.3282H26.6573H27.6447V20.5715V19.9286V16.0711V15.4281V12.8564V12.2135V5.14209H11.8477V28.2851H12.8218C12.8265 28.2851 12.8304 28.2851 12.8351 28.2851C12.8397 28.2851 12.8436 28.2851 12.8483 28.2851H13.8225H14.4808H15.1242C15.1289 28.2851 15.1344 28.2851 15.139 28.2851C15.1437 28.2851 15.1491 28.2851 15.1538 28.2851H24.3541H25.0124L25.0116 28.2859Z" fill="white"/>
</mask>
<g mask="url(#mask12_141_303)">
<path d="M27.6428 5.14307H11.8457V28.2861H27.6428V5.14307Z" fill="url(#paint12_linear_141_303)"/>
</g>
<mask id="mask13_141_303" style="mask-type:luminance" maskUnits="userSpaceOnUse" x="24" y="28" width="4" height="8">
<path d="M26.3283 35.0354C26.5104 35.0354 26.6575 34.8917 26.6575 34.7139C26.6575 34.5361 26.5104 34.3925 26.3283 34.3925C26.1463 34.3925 25.9992 34.5361 25.9992 34.7139C25.9992 34.8917 26.1463 35.0354 26.3283 35.0354ZM25.9992 30.8564V33.4683C25.4312 33.6112 25.0118 34.1143 25.0118 34.7132C25.0118 35.3128 25.4312 35.8159 25.9992 35.9587C26.0949 35.983 26.1945 35.9967 26.2972 35.999H26.3595C27.0722 35.983 27.6449 35.4138 27.6449 34.7139C27.6449 34.1143 27.2255 33.6112 26.6575 33.4683V29.5705V28.2847H25.0118H24.3535V28.9276L25.0118 29.5705H25.9992V30.8564Z" fill="white"/>
</mask>
<g mask="url(#mask13_141_303)">
<path d="M27.6468 28.2856H24.3555V36H27.6468V28.2856Z" fill="url(#paint13_linear_141_303)"/>
</g>
<mask id="mask14_141_303" style="mask-type:luminance" maskUnits="userSpaceOnUse" x="11" y="28" width="5" height="8">
<path d="M13.1642 35.0357C12.9821 35.0357 12.8351 34.892 12.8351 34.7142C12.8351 34.5364 12.9821 34.3927 13.1642 34.3927C13.3463 34.3927 13.4933 34.5364 13.4933 34.7142C13.4933 34.892 13.3463 35.0357 13.1642 35.0357ZM12.8351 35.959C12.9401 35.9856 13.0506 35.9993 13.1642 35.9993C13.2778 35.9993 13.3883 35.9848 13.4933 35.959C14.0614 35.8161 14.4808 35.313 14.4808 34.7134C14.4808 34.1138 14.0614 33.6107 13.4933 33.4679V29.57H14.4808L15.139 28.9271V28.2842H12.8351V33.4679C12.2671 33.6107 11.8477 34.1138 11.8477 34.7127C11.8477 35.3115 12.2671 35.8154 12.8351 35.9575V35.959Z" fill="white"/>
</mask>
<g mask="url(#mask14_141_303)">
<path d="M15.139 28.2856H11.8477V36H15.139V28.2856Z" fill="url(#paint14_linear_141_303)"/>
</g>
<mask id="mask15_141_303" style="mask-type:luminance" maskUnits="userSpaceOnUse" x="14" y="7" width="12" height="19">
<path d="M16.3328 7.71484H23.1637C24.1815 7.71484 25.014 8.528 25.014 9.52203V23.908C25.014 24.9021 24.1815 25.7152 23.1637 25.7152H16.3328C15.315 25.7152 14.4824 24.9021 14.4824 23.908V9.52203C14.4824 8.528 15.315 7.71484 16.3328 7.71484Z" fill="white"/>
</mask>
<g mask="url(#mask15_141_303)">
<path d="M25.014 7.71484H14.4824V25.7145H25.014V7.71484Z" fill="url(#paint15_linear_141_303)"/>
</g>
<path fill-rule="evenodd" clip-rule="evenodd" d="M15.7185 17.245L15.72 17.2465L15.7216 17.248L15.7231 17.2495L15.7247 17.2511L15.7262 17.2526L15.7278 17.2541L15.7293 17.2556L15.7309 17.2571L15.7325 17.2587L15.734 17.2602L15.7356 17.2617L15.7371 17.2632L15.7387 17.2647L15.7402 17.2663L15.7418 17.2678L15.7434 17.2693L15.7449 17.2708L15.7465 17.2723L15.748 17.2739L15.7496 17.2754L15.7511 17.2769L15.7527 17.2784L15.7542 17.2799L15.7558 17.2815L15.7574 17.283L15.7589 17.2845L15.7605 17.286L15.762 17.2875L15.7636 17.2891L15.7651 17.2906L15.7667 17.2921L15.7682 17.2936L15.7698 17.2951L15.7714 17.2967L15.7729 17.2982L15.7745 17.2997L15.776 17.3012L15.7776 17.3027L15.7791 17.3043L15.7807 17.3058L15.7823 17.3073L15.7838 17.3088L15.7854 17.3103L15.7869 17.3119L15.7885 17.3134L15.79 17.3149L15.7916 17.3164L15.7931 17.3179L15.7947 17.3195L15.7963 17.321L15.7978 17.3225L15.7994 17.324L15.8009 17.3255L15.8025 17.3271L15.804 17.3286L15.8056 17.3301L15.8072 17.3316L15.8087 17.3331L15.8103 17.3347L15.8118 17.3362L15.8134 17.3377L15.8149 17.3392L15.8165 17.3407L15.818 17.3423C15.8453 17.3787 15.8733 17.4145 15.9013 17.4494C15.9597 17.5224 16.0196 17.593 16.081 17.6637C16.1028 17.6888 16.1246 17.7131 16.1472 17.7374C16.2063 17.8036 16.2678 17.8682 16.33 17.9312C16.3479 17.9495 16.3658 17.9669 16.383 17.9852C16.3876 17.9897 16.3884 17.9913 16.3884 17.9913C16.4172 18.0201 16.4468 18.049 16.4763 18.0771C16.6794 18.2717 16.8949 18.4526 17.1221 18.6205C17.1299 18.6258 17.1292 18.6258 17.1346 18.6296C17.2568 18.7193 17.3828 18.8052 17.512 18.8865C17.7361 19.0278 17.9695 19.157 18.2107 19.271C18.2644 19.2969 18.3189 19.3212 18.3733 19.3455C18.399 19.3569 18.4247 19.3676 18.4504 19.3789C18.8682 19.5575 19.3086 19.6943 19.7669 19.7855C20.1925 19.8699 20.6322 19.914 21.0835 19.914C21.2959 19.914 21.5052 19.9041 21.7122 19.8851C21.7223 19.8843 21.7316 19.8836 21.7417 19.882C21.8522 19.8714 21.962 19.8577 22.0709 19.8418C22.1814 19.8258 22.2911 19.7984 22.4 19.7764C22.5821 19.7764 22.7292 19.6328 22.7292 19.4549C22.7292 19.3865 22.7074 19.3227 22.6692 19.2703C22.6093 19.1874 22.5113 19.1335 22.4 19.1335C22.3658 19.1335 22.3331 19.1388 22.3028 19.1479C22.2257 19.1639 22.1487 19.1776 22.0709 19.1905C21.962 19.208 21.8522 19.2232 21.7417 19.2353C21.5254 19.2589 21.306 19.2703 21.0835 19.2703C20.6314 19.2703 20.1902 19.2209 19.7669 19.1266C19.4603 19.0582 19.1623 18.9671 18.8752 18.8546C18.8324 18.8379 18.7896 18.8204 18.7468 18.8021C18.6465 18.7603 18.5476 18.7155 18.4504 18.6684C18.4224 18.6547 18.3943 18.641 18.3663 18.6266H18.3648C18.0069 18.445 17.6699 18.2291 17.3587 17.9837C17.2824 17.9229 17.207 17.8606 17.1338 17.7967C17.0832 17.7526 17.0334 17.7078 16.9852 17.6622C16.8755 17.5588 16.7689 17.4525 16.6677 17.3415C16.6016 17.2701 16.5378 17.1963 16.4763 17.1211C16.4724 17.1166 16.4685 17.112 16.4647 17.1074C16.4405 17.0786 16.4172 17.0497 16.3938 17.02C16.3464 16.96 16.2997 16.8984 16.2546 16.8361C16.2141 16.7715 16.1503 16.7214 16.0748 16.6978C16.0429 16.6879 16.0087 16.6826 15.9737 16.6826C15.9387 16.6826 15.9044 16.6879 15.8725 16.6978C15.7402 16.7396 15.6445 16.8604 15.6445 17.0041C15.6445 17.0915 15.6803 17.1713 15.7387 17.229L15.7185 17.245Z" fill="white"/>
<path fill-rule="evenodd" clip-rule="evenodd" d="M19.473 9.26153C19.4885 9.26685 19.5041 9.27217 19.5196 9.27825C19.5484 9.28585 19.578 9.29041 19.6091 9.29041C19.7928 9.29041 19.9414 9.14526 19.9414 8.96591C19.9414 8.84204 19.8706 8.73488 19.7663 8.68017C19.7437 8.67105 19.7212 8.66193 19.6978 8.65357C19.0963 8.4233 18.442 8.29639 17.7572 8.29639C16.9892 8.29639 16.2602 8.45522 15.6011 8.74172C15.5918 8.74552 15.5824 8.75008 15.5739 8.75388C15.4665 8.80708 15.3926 8.91575 15.3926 9.04115C15.3926 9.21898 15.5396 9.36261 15.7217 9.36261C15.7591 9.36261 15.7949 9.35653 15.8283 9.34513C15.84 9.34057 15.8517 9.33601 15.8633 9.33145C16.45 9.10042 17.0912 8.97351 17.7627 8.97351C18.3634 8.97351 18.9392 9.07534 19.4745 9.26153" fill="white"/>
<path fill-rule="evenodd" clip-rule="evenodd" d="M23.6569 10.7407C23.6764 10.7528 23.6966 10.765 23.7161 10.7779C23.7612 10.8 23.8118 10.8129 23.8662 10.8129C24.0499 10.8129 24.1977 10.6677 24.1977 10.4884C24.1977 10.3926 24.1557 10.3075 24.088 10.2475C24.0654 10.2315 24.0421 10.2163 24.0195 10.2011C23.3644 9.76413 22.5723 9.50879 21.7195 9.50879C21.5459 9.50879 21.3748 9.51943 21.2067 9.53995C21.1335 9.54907 21.0612 9.55971 20.9896 9.57263C20.7982 9.60606 20.6107 9.65318 20.4294 9.71246C20.3438 9.73982 20.2605 9.77021 20.1773 9.80365C20.1687 9.80745 20.1601 9.81049 20.1516 9.81429C20.0387 9.86521 19.9609 9.97692 19.9609 10.1061C19.9609 10.2839 20.108 10.4276 20.2901 10.4276C20.3243 10.4276 20.357 10.4223 20.3881 10.4131C20.399 10.4093 20.4099 10.4055 20.4208 10.401C20.648 10.3197 20.8861 10.2596 21.1328 10.2232C21.2907 10.1996 21.4518 10.1867 21.6152 10.1836C21.6393 10.1836 21.6627 10.1836 21.6868 10.1836C21.7436 10.1836 21.8004 10.1852 21.8564 10.1874C22.517 10.2171 23.1325 10.4162 23.6577 10.7414" fill="white"/>
<path fill-rule="evenodd" clip-rule="evenodd" d="M17.7724 12.8568C18.1357 12.8568 18.4306 13.1448 18.4306 13.4997C18.4306 13.8546 18.1357 14.1426 17.7724 14.1426C17.409 14.1426 17.1141 13.8546 17.1141 13.4997C17.1141 13.1448 17.409 12.8568 17.7724 12.8568ZM19.7464 13.4845C19.7464 12.4114 18.8555 11.5405 17.756 11.5405C16.6566 11.5405 15.7656 12.4107 15.7656 13.4845C15.7656 14.5583 16.6566 15.4285 17.756 15.4285C18.8555 15.4285 19.7378 14.5667 19.7464 13.4997C19.7464 13.4944 19.7464 13.4898 19.7464 13.4845Z" fill="white"/>
<path fill-rule="evenodd" clip-rule="evenodd" d="M21.7209 12.8571C22.0843 12.8571 22.3792 13.1452 22.3792 13.5001C22.3792 13.855 22.0843 14.143 21.7209 14.143C21.3575 14.143 21.0626 13.855 21.0626 13.5001C21.0626 13.1452 21.3575 12.8571 21.7209 12.8571ZM21.7209 11.5713C20.6355 11.5713 19.7547 12.427 19.7461 13.4849C19.7461 13.4902 19.7461 13.4947 19.7461 13.5001C19.7461 14.5655 20.63 15.4288 21.7209 15.4288C22.8118 15.4288 23.6957 14.5655 23.6957 13.5001C23.6957 12.4346 22.8118 11.5713 21.7209 11.5713Z" fill="white"/>
</g>
<defs>
<linearGradient id="paint0_linear_141_303" x1="37.6984" y1="10.3307" x2="29.5831" y2="16.8601" gradientUnits="userSpaceOnUse">
<stop stop-color="#07A3D0"/>
<stop offset="1" stop-color="#70C9E4"/>
</linearGradient>
<linearGradient id="paint1_linear_141_303" x1="32.1116" y1="7.4329" x2="28.5013" y2="10.0047" gradientUnits="userSpaceOnUse">
<stop stop-color="#17A9D3"/>
<stop offset="1" stop-color="#70C9E4"/>
</linearGradient>
<linearGradient id="paint2_linear_141_303" x1="31.9708" y1="11.2321" x2="28.6453" y2="13.9158" gradientUnits="userSpaceOnUse">
<stop stop-color="#07A3D0"/>
<stop offset="1" stop-color="#70C9E4"/>
</linearGradient>
<linearGradient id="paint3_linear_141_303" x1="31.7389" y1="18.8861" x2="28.8823" y2="21.6825" gradientUnits="userSpaceOnUse">
<stop stop-color="#07A3D0"/>
<stop offset="1" stop-color="#70C9E4"/>
</linearGradient>
<linearGradient id="paint4_linear_141_303" x1="32.1676" y1="22.89" x2="28.4414" y2="25.405" gradientUnits="userSpaceOnUse">
<stop stop-color="#07A3D0"/>
<stop offset="1" stop-color="#70C9E4"/>
</linearGradient>
<linearGradient id="paint5_linear_141_303" x1="25.5513" y1="0.106123" x2="23.8865" y2="5.06166" gradientUnits="userSpaceOnUse">
<stop stop-color="#07A3D0"/>
<stop offset="1" stop-color="#70C9E4"/>
</linearGradient>
<linearGradient id="paint6_linear_141_303" x1="12.1488" y1="1.4196" x2="17.4291" y2="3.81534" gradientUnits="userSpaceOnUse">
<stop stop-color="#07A3D0"/>
<stop offset="1" stop-color="#70C9E4"/>
</linearGradient>
<linearGradient id="paint7_linear_141_303" x1="5.82255" y1="9.64231" x2="6.01553" y2="17.3576" gradientUnits="userSpaceOnUse">
<stop stop-color="#07A3D0"/>
<stop offset="1" stop-color="#70C9E4"/>
</linearGradient>
<linearGradient id="paint8_linear_141_303" x1="6.58203" y1="12.5354" x2="11.8475" y2="12.5354" gradientUnits="userSpaceOnUse">
<stop stop-color="#07A3D0"/>
<stop offset="1" stop-color="#70C9E4"/>
</linearGradient>
<linearGradient id="paint9_linear_141_303" x1="6.58203" y1="8.67874" x2="11.8475" y2="8.67874" gradientUnits="userSpaceOnUse">
<stop stop-color="#07A3D0"/>
<stop offset="1" stop-color="#70C9E4"/>
</linearGradient>
<linearGradient id="paint10_linear_141_303" x1="6.58203" y1="20.2498" x2="11.8475" y2="20.2498" gradientUnits="userSpaceOnUse">
<stop stop-color="#07A3D0"/>
<stop offset="1" stop-color="#70C9E4"/>
</linearGradient>
<linearGradient id="paint11_linear_141_303" x1="6.58203" y1="24.1075" x2="11.8475" y2="24.1075" gradientUnits="userSpaceOnUse">
<stop stop-color="#07A3D0"/>
<stop offset="1" stop-color="#70C9E4"/>
</linearGradient>
<linearGradient id="paint12_linear_141_303" x1="15.3363" y1="26.9189" x2="23.8048" y2="6.36709" gradientUnits="userSpaceOnUse">
<stop stop-color="#989898"/>
<stop offset="0.5" stop-color="#72696C"/>
<stop offset="1" stop-color="#DDDDDD"/>
</linearGradient>
<linearGradient id="paint13_linear_141_303" x1="28.1176" y1="34.344" x2="23.9907" y2="29.8452" gradientUnits="userSpaceOnUse">
<stop stop-color="#07A3D0"/>
<stop offset="1" stop-color="#70C9E4"/>
</linearGradient>
<linearGradient id="paint14_linear_141_303" x1="11.4998" y1="34.7119" x2="15.3681" y2="29.4859" gradientUnits="userSpaceOnUse">
<stop stop-color="#07A3D0"/>
<stop offset="1" stop-color="#70C9E4"/>
</linearGradient>
<linearGradient id="paint15_linear_141_303" x1="22.8214" y1="24.801" x2="16.9248" y2="8.53827" gradientUnits="userSpaceOnUse">
<stop stop-color="#0E85B9"/>
<stop offset="0.14" stop-color="#3B9CC6"/>
<stop offset="0.49" stop-color="#0E79A6"/>
<stop offset="0.64" stop-color="#0695D2"/>
<stop offset="1" stop-color="#AFD6E7"/>
</linearGradient>
<clipPath id="clip0_141_303">
<rect width="39.4872" height="36" fill="white"/>
</clipPath>
</defs>
</svg>
