<svg width="24" height="24" viewBox="0 0 24 24" fill="none" xmlns="http://www.w3.org/2000/svg">
<path d="M12.685 24H12.678C9.10671 23.976 6.36116 22.795 4.51617 20.491C2.87562 18.44 2.02792 15.586 2 12.01V11.993C2.02992 8.414 2.87662 5.563 4.51817 3.511C6.36116 1.205 9.10871 0.024 12.679 0H12.693C15.4315 0.02 17.7223 0.725 19.5005 2.098C21.173 3.388 22.3508 5.228 23 7.565L20.9655 8.134C19.8645 4.174 17.0781 2.15 12.684 2.119C9.78188 2.141 7.58783 3.055 6.1617 4.836C4.82733 6.504 4.1382 8.914 4.11127 12C4.1382 15.086 4.82733 17.496 6.1627 19.164C7.58883 20.947 9.78387 21.862 12.685 21.881C15.3009 21.861 17.0312 21.25 18.4693 19.836C20.1118 18.223 20.0829 16.243 19.5563 15.038C19.2472 14.328 18.6857 13.738 17.9268 13.288C17.7353 14.64 17.3065 15.734 16.6462 16.56C15.7626 17.662 14.512 18.264 12.9263 18.35C11.7276 18.415 10.5717 18.132 9.67616 17.549C8.61604 16.86 7.99573 15.809 7.92891 14.585C7.86408 13.395 8.3358 12.3 9.25531 11.503C10.1329 10.743 11.3686 10.296 12.8286 10.212C13.8347 10.149 14.8447 10.1966 15.8404 10.354C15.7148 9.612 15.4664 9.022 15.0925 8.597C14.5809 8.011 13.788 7.714 12.7399 7.707H12.7109C11.8692 7.707 10.7243 7.939 9.99729 9.027L8.24505 7.847C9.2224 6.393 10.8061 5.591 12.7109 5.591H12.7548C15.9402 5.611 17.838 7.566 18.0275 10.979C18.1352 11.025 18.2429 11.073 18.3476 11.121C19.8336 11.821 20.9206 12.882 21.4931 14.191C22.2879 16.011 22.3617 18.981 19.9493 21.349C18.1043 23.159 15.8664 23.977 12.692 23.999L12.685 24ZM13.6853 12.31C13.4439 12.31 13.1996 12.317 12.9483 12.331C11.1173 12.434 9.97635 13.277 10.0402 14.474C10.107 15.73 11.4882 16.313 12.8166 16.241C14.0373 16.176 15.627 15.698 15.8943 12.531C15.1678 12.3791 14.4273 12.305 13.6853 12.31Z" fill="#EEEFEF"/>
</svg>
