<svg width="85" height="12" viewBox="0 0 85 12" fill="none" xmlns="http://www.w3.org/2000/svg">
<path fill-rule="evenodd" clip-rule="evenodd" d="M8.78663 7.58149C6.93855 7.58149 2.19952 6.90865 2.19952 4.34537C2.19952 2.5549 5.14952 1.10946 8.78663 1.10946C12.4238 1.10946 15.3702 2.5549 15.3702 4.34537C15.3702 6.13032 12.4238 7.58149 8.78663 7.58149ZM9.77809 0C4.37682 0 0 1.97634 0 4.41074C0 6.85042 4.37682 8.82454 9.77804 8.82454C15.1744 8.82454 19.5526 6.85042 19.5526 4.41074C19.5526 1.97634 15.1745 0 9.77809 0Z" fill="#6B6B6B"/>
<path fill-rule="evenodd" clip-rule="evenodd" d="M74.2342 7.58149C72.3862 7.58149 67.6464 6.90884 67.6464 4.34537C67.6464 2.5549 70.5966 1.10946 74.2342 1.10946C77.8709 1.10946 80.8171 2.5549 80.8171 4.34537C80.8171 6.13032 77.8709 7.58149 74.2342 7.58149ZM75.2249 0C69.8243 0 65.4473 1.97634 65.4473 4.41074C65.4473 6.85042 69.8243 8.82454 75.2248 8.82454C80.6219 8.82454 84.9999 6.85042 84.9999 4.41074C84.9999 1.97634 80.6219 0 75.2249 0Z" fill="#6B6B6B"/>
<path fill-rule="evenodd" clip-rule="evenodd" d="M31.8225 0C30.1964 0 28.665 0.180211 27.3158 0.496675V1.60856C28.3337 1.29295 29.5388 1.10946 30.8311 1.10946C34.468 1.10946 37.4145 2.55491 37.4145 4.34538C37.4145 6.13034 34.468 7.58149 30.8311 7.58149C28.3269 7.58149 26.1485 6.89319 25.0344 5.88228V0.261283H21.582V12H25.0344V7.58701C26.7931 8.35272 29.1846 8.82454 31.8225 8.82454C37.2189 8.82454 41.597 6.85044 41.597 4.41075C41.597 1.97635 37.2189 0 31.8225 0Z" fill="#6B6B6B"/>
<path fill-rule="evenodd" clip-rule="evenodd" d="M53.867 0C52.241 0 50.7097 0.180211 49.361 0.496675V1.60856C50.3781 1.29295 51.5832 1.10946 52.8758 1.10946C56.513 1.10946 59.4594 2.55491 59.4594 4.34538C59.4594 6.13034 56.5129 7.58149 52.8758 7.58149C50.372 7.58149 48.1933 6.89319 47.079 5.88228V0.261283H43.627V12H47.079V7.58701C48.8375 8.35272 51.2295 8.82454 53.867 8.82454C59.2639 8.82454 63.6417 6.85044 63.6417 4.41075C63.6417 1.97635 59.2639 0 53.867 0Z" fill="#6B6B6B"/>
</svg>
