<svg width="85" height="12" viewBox="0 0 85 12" fill="none" xmlns="http://www.w3.org/2000/svg">
<path d="M70.1838 0.37496L70.3464 9.18748H70.2649L67.5049 0.37496H62.9584V11.4749H65.9621L65.7999 2.36264H65.8814L68.8443 11.4749H73.1878V0.37496H70.1838ZM12.9894 0.37496L10.7164 11.5877H14.0045L15.6687 1.38761H15.7498L17.3736 11.5874H20.621L18.3883 0.37496H12.9894ZM31.337 0.37496L29.8354 8.92507H29.7539L28.2522 0.37496H23.2999L23.0563 11.5877H26.1007L26.1821 1.49984H26.2225L28.2519 11.5874H31.337L33.3667 1.50016H33.4482L33.529 11.5874H36.5734L36.2893 0.37496H31.337ZM5.60185 8.39993C5.72333 8.66234 5.68296 9.03763 5.64223 9.2251C5.56112 9.60006 5.27708 9.97502 4.46498 9.97502C3.69396 9.97502 3.24735 9.56277 3.24735 8.96237V7.87512H0V8.7376C0 11.2501 2.15121 12 4.4246 12C6.61654 12 8.44298 11.2874 8.72738 9.44989C8.88958 8.47486 8.76775 7.83749 8.72738 7.61239C8.15894 5.25008 3.53175 4.57509 3.20662 3.2624C3.16625 3.0373 3.16625 2.81252 3.20662 2.66234C3.28808 2.28738 3.57212 1.91242 4.30277 1.91242C5.03342 1.91242 5.43965 2.32468 5.43965 2.92507V3.60007H8.48371V2.81252C8.48371 0.374959 6.08883 0 4.38387 0C2.23267 0 0.446604 0.674992 0.121833 2.47486C0.040375 2.96237 0 3.41259 0.162208 3.97502C0.649542 6.30003 4.9934 6.97502 5.60185 8.39993ZM45.0982 8.39993C45.2196 8.66267 45.1789 9 45.1385 9.2251C45.0571 9.60006 44.773 9.97502 43.9613 9.97502C43.1899 9.97502 42.7437 9.56277 42.7437 8.96237V7.87512H39.496V8.7376C39.496 11.2125 41.6068 11.9627 43.8802 11.9627C46.0721 11.9627 47.8582 11.2877 48.1422 9.41259C48.3048 8.43756 48.183 7.83749 48.1422 7.57509C47.6552 5.25008 43.0681 4.53746 42.7437 3.26273C42.7029 3.03763 42.7029 2.81252 42.7437 2.66234C42.8248 2.28738 43.1088 1.91242 43.8395 1.91242C44.5294 1.91242 44.9763 2.32468 44.9763 2.92507V3.60007H47.9797V2.81252C47.9797 0.374959 45.6255 0 43.9209 0C41.7694 0 40.0237 0.637365 39.6992 2.47486C39.6178 2.96237 39.6178 3.41259 39.7396 3.97502C40.227 6.30003 44.489 6.9374 45.0982 8.39993ZM55.3272 9.9001C56.1797 9.9001 56.423 9.37496 56.5041 9.07493C56.5448 8.9627 56.5448 8.77489 56.5448 8.66267V0.37496H59.6296V8.43756C59.6296 8.66267 59.6296 9.07493 59.5892 9.18748C59.3863 11.2877 57.6003 11.9627 55.3676 11.9627C53.1353 11.9627 51.3492 11.2877 51.1459 9.18748C51.1459 9.07493 51.1055 8.66267 51.1055 8.43756V0.37496H54.1903V8.66267C54.1903 8.81252 54.1903 8.96237 54.2311 9.07493C54.2311 9.37496 54.4747 9.9001 55.3272 9.9001ZM80.6565 9.78755C81.5497 9.78755 81.8338 9.26241 81.9149 8.96237C81.9556 8.85015 81.9556 8.66234 81.9556 8.55011V6.9374H80.6972V5.28738H85V8.28771C85 8.51249 85 8.66234 84.9593 9.03763C84.7563 11.0999 82.8484 11.8125 80.6972 11.8125C78.5457 11.8125 76.6381 11.0999 76.4352 9.03763C76.3945 8.66234 76.3945 8.51249 76.3945 8.28738V3.56277C76.3945 3.37496 76.4352 3 76.4352 2.81252C76.7192 0.712292 78.546 0.0373003 80.6972 0.0373003C82.8484 0.0373003 84.716 0.712292 84.9593 2.81252C85 3.14985 85 3.56244 85 3.56244V3.9374H81.9556V3.30003C81.9556 3.30003 81.9556 3.0373 81.9149 2.88745C81.8745 2.62504 81.6308 2.0626 80.6972 2.0626C79.8044 2.0626 79.5603 2.58742 79.4796 2.88745C79.4389 3.0373 79.4389 3.22511 79.4389 3.41259V8.55011C79.4389 8.69997 79.4389 8.84982 79.4796 8.96237C79.4796 9.26241 79.8044 9.78755 80.6565 9.78755Z" fill="#6B6B6B"/>
</svg>
