<svg width="40" height="40" viewBox="0 0 40 40" fill="none" xmlns="http://www.w3.org/2000/svg">
<path d="M11.1451 18.1999L18.4612 2C19.9165 2 21.3121 2.56892 22.3411 3.58161C23.3702 4.5943 23.9483 5.96781 23.9483 7.39997V14.5999H34.3005C34.8308 14.594 35.356 14.7016 35.8398 14.9153C36.3236 15.129 36.7544 15.4436 37.1023 15.8374C37.4503 16.2312 37.7071 16.6948 37.8549 17.196C38.0028 17.6971 38.0382 18.2239 37.9586 18.7399L35.4345 34.9398C35.3022 35.7982 34.8592 36.5807 34.187 37.143C33.5147 37.7053 32.6587 38.0096 31.7765 37.9998H11.1451M11.1451 18.1999V37.9998M11.1451 18.1999H5.65804C4.68787 18.1999 3.75743 18.5792 3.07142 19.2543C2.3854 19.9294 2 20.8451 2 21.7999V34.3998C2 35.3546 2.3854 36.2702 3.07142 36.9454C3.75743 37.6205 4.68787 37.9998 5.65804 37.9998H11.1451" stroke="#548EF8" stroke-width="3" stroke-linecap="round" stroke-linejoin="round"/>
</svg>
