<svg width="36" height="36" viewBox="0 0 36 36" fill="none" xmlns="http://www.w3.org/2000/svg">
<path fill-rule="evenodd" clip-rule="evenodd" d="M34.6333 36H1.36665C0.611838 36 0 35.3881 0 34.6333V1.36425C0 0.609386 0.611838 -0.00214767 1.36665 -0.00214767H34.6333C35.3882 -0.00214767 36 0.609386 36 1.36425V34.6333C36 35.3881 35.3882 36 34.6333 36Z" fill="#6B6B6B"/>
<path d="M28.2294 11.3217H25.3972C25.2759 11.3217 25.1777 11.4181 25.1777 11.537V24.46C25.1777 24.5779 25.2759 24.6743 25.3972 24.6743H28.2294C28.3496 24.6743 28.4492 24.5779 28.4492 24.46V11.537C28.4492 11.4181 28.3496 11.3217 28.2294 11.3217Z" fill="white"/>
<path d="M18.5578 11.3217H7.76955C7.64828 11.3217 7.55078 11.4181 7.55078 11.537V24.46C7.55078 24.5779 7.64828 24.6743 7.76955 24.6743H10.6024C10.723 24.6743 10.8229 24.5779 10.8229 24.46V14.3174C10.8229 14.2002 10.9204 14.1031 11.0417 14.1031H17.1439C18.8599 14.1031 19.3471 15.4175 19.3471 16.2653V24.46C19.3471 24.5779 19.4456 24.6743 19.5669 24.6743H22.398C22.5186 24.6743 22.6175 24.5779 22.6175 24.46V15.2924C22.6175 14.5361 22.5265 13.4488 21.5509 12.4917C20.5301 11.4925 19.5989 11.3217 18.5578 11.3217Z" fill="white"/>
<path d="M16.5758 16.4688H13.6017C13.4804 16.4688 13.3809 16.5652 13.3809 16.6834V24.4608C13.3809 24.5783 13.4804 24.6748 13.6017 24.6748H16.5758C16.696 24.6748 16.7946 24.5783 16.7946 24.4608V16.6834C16.7946 16.5652 16.696 16.4688 16.5758 16.4688Z" fill="white"/>
</svg>
