<svg xmlns="http://www.w3.org/2000/svg" version="1.1" xmlns:xlink="http://www.w3.org/1999/xlink" width="64" height="64"><svg id="SvgjsSvg1296" data-name="Слой 1" xmlns="http://www.w3.org/2000/svg" viewBox="0 0 64 64">
  <defs>
    <style>
      .cls-1 {
        fill: #548ef8;
      }

      .cls-1, .cls-2, .cls-3, .cls-4 {
        stroke-width: 0px;
      }

      .cls-2 {
        fill: #fff;
      }

      .cls-3 {
        fill: #01070f;
      }

      .cls-4 {
        fill: #1d1d1b;
      }
    </style>
  </defs>
  <path class="cls-3" d="m15,10.99v42h34V10.99H15Zm32,40h-30V12.99h30v38Z"></path>
  <rect class="cls-1" x="17" y="12.99" width="30" height="38"></rect>
  <path class="cls-3" d="m25.47,24.26c-2.75,0-5,2.24-5,5s2.25,5,5,5,5-2.24,5-5-2.24-5-5-5Zm0,8c-1.65,0-3-1.35-3-3s1.35-3,3-3,3,1.34,3,3-1.34,3-3,3Z"></path>
  <circle class="cls-2" cx="25.47" cy="29.26" r="3"></circle>
  <rect class="cls-3" x="15" y="51.99" width="2" height="2.88"></rect>
  <path class="cls-3" d="m16,53.87c-2.76,0-5,2.25-5,5s2.24,5,5,5,5-2.24,5-5-2.25-5-5-5Zm0,8c-1.66,0-3-1.34-3-3s1.34-3,3-3,3,1.35,3,3-1.35,3-3,3Z"></path>
  <circle class="cls-1" cx="16" cy="58.87" r="3"></circle>
  <path class="cls-3" d="m39.28,24.26c-2.76,0-5,2.24-5,5s2.24,5,5,5,5-2.24,5-5-2.24-5-5-5Zm0,8c-1.65,0-3-1.35-3-3s1.35-3,3-3,3,1.34,3,3-1.35,3-3,3Z"></path>
  <circle class="cls-2" cx="39.28" cy="29.26" r="3"></circle>
  <path class="cls-3" d="m31.13,41.23c-.59,0-1.19-.11-1.76-.32-1.25-.47-2.24-1.4-2.79-2.62l1.82-.82c.33.73.93,1.29,1.67,1.57.75.28,1.56.26,2.29-.08l.82,1.82c-.66.3-1.36.45-2.06.45Z"></path>
  <path class="cls-4" d="m41.4,22.87c-1.17-1.17-3.07-1.17-4.24,0l-1.41-1.41c1.95-1.95,5.12-1.95,7.07,0l-1.41,1.41Z"></path>
  <path class="cls-3" d="m27.59,22.87c-1.17-1.17-3.07-1.17-4.24,0l-1.41-1.41c1.95-1.95,5.12-1.95,7.07,0l-1.41,1.41Z"></path>
  <path class="cls-3" d="m25.47,30.87c-.89,0-1.61-.72-1.61-1.61s.72-1.61,1.61-1.61,1.61.72,1.61,1.61-.72,1.61-1.61,1.61Zm0-1.61h0s0,0,0,0Z"></path>
  <path class="cls-3" d="m41.23.13c-2.76,0-5,2.24-5,5s2.24,5,5,5,5-2.25,5-5S43.98.13,41.23.13Zm0,8c-1.66,0-3-1.35-3-3s1.34-3,3-3,3,1.34,3,3-1.35,3-3,3Z"></path>
  <circle class="cls-1" cx="41.23" cy="5.13" r="3"></circle>
  <rect class="cls-3" x="33.5" y="8.99" width="5.8" height="2" transform="translate(3.14 27.85) rotate(-43.58)"></rect>
  <path class="cls-3" d="m22.77.13c-2.76,0-5,2.24-5,5s2.24,5,5,5,5-2.25,5-5S25.53.13,22.77.13Zm0,8c-1.66,0-3-1.35-3-3s1.34-3,3-3,3,1.34,3,3-1.35,3-3,3Z"></path>
  <circle class="cls-1" cx="22.77" cy="5.13" r="3"></circle>
  <rect class="cls-3" x="26.59" y="7.09" width="2" height="5.8" transform="translate(1.33 23.1) rotate(-46.42)"></rect>
  <rect class="cls-3" x="47" y="51.99" width="2" height="2.88"></rect>
  <path class="cls-3" d="m48,53.87c-2.76,0-5,2.25-5,5s2.24,5,5,5,5-2.24,5-5-2.25-5-5-5Zm0,8c-1.66,0-3-1.34-3-3s1.34-3,3-3,3,1.35,3,3-1.35,3-3,3Z"></path>
  <circle class="cls-1" cx="48" cy="58.87" r="3"></circle>
  <rect class="cls-3" x="48" y="18.77" width="8" height="2"></rect>
  <rect class="cls-3" x="48" y="26.77" width="6.96" height="2"></rect>
  <rect class="cls-3" x="48" y="34.77" width="8" height="2"></rect>
  <rect class="cls-3" x="48" y="43.22" width="8" height="2"></rect>
  <path class="cls-3" d="m58.95,22.77c-2.75,0-5,2.24-5,5s2.25,5,5,5,5-2.25,5-5-2.24-5-5-5Zm0,8c-1.65,0-3-1.35-3-3s1.35-3,3-3,3,1.34,3,3-1.34,3-3,3Z"></path>
  <circle class="cls-1" cx="58.95" cy="27.77" r="3"></circle>
  <rect class="cls-3" x="8" y="18.77" width="8" height="2"></rect>
  <rect class="cls-3" x="9.04" y="26.77" width="6.96" height="2"></rect>
  <rect class="cls-3" x="8" y="34.77" width="8" height="2"></rect>
  <rect class="cls-3" x="8" y="43.22" width="8" height="2"></rect>
  <path class="cls-3" d="m5.04,22.77C2.29,22.77.04,25.01.04,27.77s2.25,5,5,5,5-2.25,5-5-2.24-5-5-5Zm0,8c-1.65,0-3-1.35-3-3s1.35-3,3-3,3,1.34,3,3-1.34,3-3,3Z"></path>
  <circle class="cls-1" cx="5.04" cy="27.77" r="3"></circle>
  <path class="cls-3" d="m39.28,30.87c-.89,0-1.61-.72-1.61-1.61s.72-1.61,1.61-1.61,1.61.72,1.61,1.61-.72,1.61-1.61,1.61Zm0-1.61h0s0,0,0,0Z"></path>
</svg><style>@media (prefers-color-scheme: light) { :root { filter: none; } }
@media (prefers-color-scheme: dark) { :root { filter: none; } }
</style></svg>